<?xml version="1.0" standalone="no"?>
<!DOCTYPE svg PUBLIC "-//W3C//DTD SVG 1.1//EN" "http://www.w3.org/Graphics/SVG/1.1/DTD/svg11.dtd" >
<svg xmlns="http://www.w3.org/2000/svg">
<metadata>
Created by FontForge 20120731 at Sun Jun 25 15:59:55 2017
 By admin
</metadata>
<defs>
<font id="iconfont" horiz-adv-x="1024" >
  <font-face 
    font-family="iconfont"
    font-weight="500"
    font-stretch="normal"
    units-per-em="1024"
    panose-1="2 0 6 3 0 0 0 0 0 0"
    ascent="896"
    descent="-128"
    x-height="792"
    bbox="-0.025641 -169 1024.36 896.026"
    underline-thickness="0"
    underline-position="0"
    unicode-range="U+0078-E67D"
  />
<missing-glyph 
 />
    <glyph glyph-name=".notdef" 
 />
    <glyph glyph-name=".notdef" 
 />
    <glyph glyph-name=".null" horiz-adv-x="0" 
 />
    <glyph glyph-name="nonmarkingreturn" horiz-adv-x="341" 
 />
    <glyph glyph-name="x" unicode="x" horiz-adv-x="1001" 
d="M281 543q-27 -1 -53 -1h-83q-18 0 -36.5 -6t-32.5 -18.5t-23 -32t-9 -45.5v-76h912v41q0 16 -0.5 30t-0.5 18q0 13 -5 29t-17 29.5t-31.5 22.5t-49.5 9h-133v-97h-438v97zM955 310v-52q0 -23 0.5 -52t0.5 -58t-10.5 -47.5t-26 -30t-33 -16t-31.5 -4.5q-14 -1 -29.5 -0.5
t-29.5 0.5h-32l-45 128h-439l-44 -128h-29h-34q-20 0 -45 1q-25 0 -41 9.5t-25.5 23t-13.5 29.5t-4 30v167h911zM163 247q-12 0 -21 -8.5t-9 -21.5t9 -21.5t21 -8.5q13 0 22 8.5t9 21.5t-9 21.5t-22 8.5zM316 123q-8 -26 -14 -48q-5 -19 -10.5 -37t-7.5 -25t-3 -15t1 -14.5
t9.5 -10.5t21.5 -4h37h67h81h80h64h36q23 0 34 12t2 38q-5 13 -9.5 30.5t-9.5 34.5q-5 19 -11 39h-368zM336 498v228q0 11 2.5 23t10 21.5t20.5 15.5t34 6h188q31 0 51.5 -14.5t20.5 -52.5v-227h-327z" />
    <glyph glyph-name="fangdajing" unicode="&#xe634;" 
d="M850 -1l1 1l-198 193q60 71 63 161q3 53 -17 105t-57 91q-67 71 -165 83q-18 3 -37 3q-95 0 -168 -56q-41 -31 -68 -75t-36 -93q-17 -97 33 -181q34 -57 90 -93q52 -32 113 -40q18 -2 36 -2q88 0 158 48l198 -193l4 -3v0q10 -8 23 -8q15 0 26 10.5t11 24.5t-10 24v0z
M650 263q-24 -48 -70 -81.5t-100 -41.5q-52 -9 -103 5q-49 13 -88.5 45.5t-60.5 77.5q-24 50 -21.5 108.5t32.5 105.5q26 44 69 73t94 37h5q5 1 8 1q12 2 25 2q53 0 99 -21q41 -19 72.5 -52t47.5 -74q18 -45 15.5 -93.5t-24.5 -91.5z" />
    <glyph glyph-name="87" unicode="&#xe677;" 
d="M512 745q-91 0 -173 -35t-142 -95t-95 -142t-35 -173t35 -173t95 -142t142 -95t173 -35t173 35t142 95t95 142t35 173t-35 173t-95 142t-142 95t-173 35zM512 -115q-113 0 -208.5 55.5t-151 151t-55.5 208.5t55.5 208.5t151 151t208.5 55.5t208.5 -55.5t151 -151
t55.5 -208.5t-55.5 -208.5t-151 -151t-208.5 -55.5zM731 317q-37 25 -37 72q0 48 -18 85t-46 57.5t-58.5 30.5t-59.5 10t-59.5 -10t-58.5 -30.5t-46 -57.5t-18 -85q0 -47 -37 -72q-21 -15 -36.5 -53t0.5 -90l2 -10l10 2q20 3 34 30q7 -27 36 -45q1 -1 3 -2h-2
q-11 -1 -22.5 -7.5t-16.5 -17.5q-8 -18 6 -35q25 -32 105 -32q42 0 69 17q3 2 8 5q11 8 23 8t23 -8q5 -3 8 -5q27 -17 69 -17q80 0 105 32q14 17 6 35q-5 11 -16.5 17.5t-22.5 7.5h-2q1 1 3 2q29 18 36 45q14 -27 34 -30l10 -2l2 10q16 52 0.5 90t-36.5 53zM749 193
q-4 4 -10 15q-1 3 -2 4q-9 15 -22 15q-6 0 -11 -5q-5 -6 -5 -17q1 -8 -7.5 -18.5t-17.5 -16.5q-18 -11 -14 -27q4 -15 23 -16q14 -1 19 -12q3 -6 -2 -12q-19 -24 -88 -24q-36 0 -58 14q-2 1 -6 4q-17 13 -36 13t-36 -13q-4 -3 -6 -4q-22 -14 -58 -14q-69 0 -88 24
q-5 6 -2 12q5 11 19 12q19 1 23 16q4 16 -14 27q-9 6 -17.5 16.5t-7.5 18.5q0 11 -5 17q-5 5 -11 5q-13 0 -22 -15q-1 -1 -2 -4q-6 -11 -10 -15q-6 20 -3 38t7 29.5t11 21t10.5 12.5t5.5 5q46 32 46 90q0 36 11.5 65.5t29 46.5t39.5 29t42 16t38 4t38 -4t42 -16t39.5 -29
t29 -46.5t11.5 -65.5q0 -58 46 -90q2 -2 5.5 -5t10.5 -12.5t11 -21t7 -29.5t-3 -38z" />
    <glyph glyph-name="fangdajing1" unicode="&#xe605;" 
d="M870 12l-176 176l-6 6q47 72 47 159q0 120 -85.5 205.5t-206.5 85.5t-206.5 -85.5t-85.5 -206t85.5 -206t206.5 -85.5q86 0 159 47q3 -5 5 -7l177 -176q17 -18 42.5 -18t43.5 18t18 43.5t-18 43.5zM443 153q-83 0 -141.5 58.5t-58.5 141t58.5 141t141 58.5t141.5 -58.5
t59 -141t-59 -141t-141 -58.5v0z" />
    <glyph glyph-name="shouji" unicode="&#xe65c;" 
d="M128 748h-43h43zM245 -145zM703 748h-385q-34 0 -58.5 -24.5t-24.5 -58.5v-726q0 -35 24.5 -59.5t58.5 -24.5h385q34 0 58.5 24.5t24.5 59.5v726q0 34 -24.5 58.5t-58.5 24.5zM400 706h221v-28h-221v28zM510.5 -89q-22.5 0 -39 16t-16.5 39.5t16.5 39.5t39 16t39 -16
t16.5 -39.5t-16.5 -39.5t-39 -16zM731 78h-441v559h441v-559z" />
    <glyph glyph-name="zhifubao" unicode="&#xe67d;" 
d="M511 620q-87 0 -160.5 -43t-116.5 -116.5t-43 -160.5t43 -160.5t116.5 -116.5t160.5 -43t160.5 43t116.5 116.5t43 160.5t-43 160.5t-116.5 116.5t-160.5 43v0zM511 16q-118 0 -201 83t-83 200.5t83 201t201 83.5t201 -83.5t83 -200.5q0 -36 -9 -71q-71 13 -177 49
q14 26 25 54.5t15 44.5l4 15h-6h-50h-53v42h130v17h-130v62h-59v-62h-118v-17h118v-42h-100v-17h203q0 -2 -4.5 -16.5t-12 -33.5t-12.5 -30q-22 9 -42 15t-36 10t-31 6t-25.5 2.5t-21 -0.5t-16.5 -2t-13 -3.5t-10 -3.5t-7 -3.5l-4 -2.5q-28 -18 -38 -42.5t-4 -46.5
t19.5 -40.5t30.5 -26.5q66 -21 123 3.5t98 72.5q3 -2 175 -76q-38 -64 -103.5 -102.5t-142.5 -38.5v0zM538 260l-6 -9q-25 -33 -54 -51t-53 -20.5t-38 -1t-23 5.5q-20 5 -30 27t-4 46t27 36q12 6 25 8.5t23 3.5t25 -2t23 -5t24.5 -9t21 -9t21.5 -10.5t18 -9.5v0zM538 260z
" />
    <glyph glyph-name="fangdajing2" unicode="&#xe604;" 
d="M977 -114l-299 299q68 93 68 207q0 95 -47 176t-127.5 127.5t-175.5 46.5t-175.5 -46.5t-127.5 -127.5t-47 -176t47 -175.5t127.5 -127.5t175.5 -47q135 0 235 91l297 -296q5 -6 13 -6t14 6l22 22q6 6 6 14t-6 13v0v0zM396 115q-115 0 -196 81.5t-81 196t81 195.5
t195.5 81t196 -81t81.5 -195.5t-81.5 -196t-195.5 -81.5v0v0zM421 632v0q-100 0 -171 -71t-71 -171v0v0q0 -14 10 -24t24 -10t24 10t10 24v0v0q0 72 51 123t123 51v0q14 0 24 10t10 24t-10 24t-24 10v0v0zM421 632z" />
    <glyph glyph-name="iconfontzhengpin" unicode="&#xe609;" horiz-adv-x="1026" 
d="M151 747q120 119 288 144q102 14 200 -11t180 -86.5t133.5 -148.5t66.5 -188q15 -103 -12 -202.5t-85 -177.5t-146 -131.5t-191 -68.5q-88 -12 -175.5 5.5t-162.5 63.5q-13 8 -16.5 23t4 27.5t22.5 16.5t28 -4q134 -82 289 -59q118 16 210 89t135.5 181t26.5 226
q-12 87 -56.5 161.5t-114.5 127.5t-154 74.5t-171 8.5q-118 -17 -210 -89.5t-135.5 -181t-26.5 -225.5q13 -95 64 -175q9 -12 5.5 -27t-16 -23t-27.5 -5t-23 16q-60 93 -76 203q-14 102 11 200t86 180q23 30 49 56v0zM294 553q-32 0 -34 34q2 31 34 33h434q29 -2 33 -33
q-4 -34 -33 -34h-161v-120h156q29 -2 34 -36q-5 -34 -34 -34h-156v-147h172q31 -2 36 -31q0 -34 -32 -36h-460q-30 2 -32 36q2 29 32 31h45v242q0 34 34 38q34 -4 36 -38v-242h97v337h-201z" />
    <glyph glyph-name="tui" unicode="&#xe628;" 
d="M512 -65q-91 0 -174 35.5t-143 95.5t-95.5 143t-35.5 174.5t35.5 174.5t95.5 143t143 95.5t174 35.5t174 -35.5t143 -95.5t95.5 -143t35.5 -174.5t-35.5 -174.5t-95.5 -143t-143 -95.5t-174 -35.5zM512 750q-100 0 -184 -49t-133.5 -133.5t-49.5 -184t49.5 -184
t133.5 -133.5t184 -49t184 49t133.5 133.5t49.5 184t-49.5 184t-133.5 133.5t-184 49zM780 145q-6 -8 -15 -11t-50 -3q-42 -2 -78 -2q-69 0 -116 3q-48 2 -73 8q-51 10 -82 40q-6 7 -13 7q-6 0 -13 -5q-5 -5 -22 -27q-16 -22 -23 -27q-6 -5 -18 -5q-5 0 -11.5 3t-12 7.5
t-9 10.5t-3.5 14t4 16t23 28q9 10 21 20.5t23 20.5q2 3 2 7v150q0 8 -2 10.5t-7 2.5h-30q-16 0 -25.5 9.5t-9.5 23t9.5 22.5t25.5 9h62q25 0 35 -15t10 -48v-168q0 -3 2 -5q2 -3 19 -14q9 -6 19 -10.5t21 -7.5q11 -5 24 -7t27 -3q13 -1 37 -2q22 -1 54 -1q31 0 61 1t54 2
q28 2 40 2q13 1 15 1q11 1 18 -5.5t10 -15.5q4 -9 3 -19t-6 -17zM749 213q-12 0 -30 12q-80 50 -186 106q-20 12 -20 23q0 12 11 25q12 13 24 13q7 0 14 -4l69 -36q6 -4 8 -4q6 0 34 21q29 22 29 24t-9 2h-199q-8 0 -8 -8v-96q0 -8 5 -8q7 0 29 6q12 3 19 5.5t12 4.5
q7 2 9 2q3 1 6 1q15 0 23 -12q14 -24 1 -38q-7 -7 -34 -18q-29 -13 -56 -17q-12 -2 -24 -3q-10 -1 -17 -1q-22 0 -31 12.5t-9 41.5v318q0 34 13 45.5t59 11.5h200q30 0 43 -13.5t13 -43.5v-131q0 -27 -11 -43q6 0 11 -3q7 -3 11.5 -7.5t7.5 -10.5t3 -12q0 -12 -14 -25
q-15 -13 -47 -34q-5 -3 -5 -5t4 -4q27 -16 38 -23q16 -9 23 -14q15 -11 15 -23t-11 -25q-11 -12 -23 -12zM680 567q0 7 -1.5 10.5t-8.5 3.5h-177q-4 0 -5.5 -3t-1.5 -11v-10q0 -9 8 -9h178q8 0 8 9v10zM680 483q0 9 -8 9h-178q-8 0 -8 -9v-17q0 -9 8 -9h175q11 0 11 14v12z
M362.5 534q-12.5 0 -21.5 7q-22 17 -76 49q-16 9 -16 21q0 6 2.5 12.5t6.5 12.5t11 10q6 4 15 4q17 0 48 -20q16 -10 27 -17q13 -8 21 -14t12 -12.5t4 -14.5q0 -14 -11 -26q-10 -12 -22.5 -12z" />
    <glyph glyph-name="iconfontweixin1" unicode="&#xe621;" 
d="M499 551q20 0 32 12t12 32t-12 32t-32 12q-21 0 -37 -12.5t-16 -31.5t16 -31.5t37 -12.5zM253 639q-21 0 -37 -12.5t-16 -31.5t16 -31.5t37 -12.5q20 0 32 12t12 32t-12 32t-32 12zM1024 270q0 104 -84 182t-203 87v6q-24 111 -130 185t-240 74q-99 0 -184 -42
t-134 -114.5t-49 -158.5q0 -142 138 -243l-32 -94q-3 -10 5 -17q4 -4 10 -4q4 0 8 2l117 59l15 -3q68 -14 106 -14q17 0 34 1q7 1 11 6q33 -81 114.5 -132t183.5 -51q37 0 103 17l91 -50q3 -2 7 -2q6 0 11 3q8 7 5 18l-23 77q120 95 120 208zM399 208q-16 -1 -32 -1
q-35 0 -100 13l-20 4q-5 1 -10 -1l-88 -45l23 69q3 12 -6 19q-134 93 -134 223q0 77 45 142t122 103t168 38q123 0 219.5 -66t118.5 -166q-129 -1 -219.5 -80t-90.5 -190q0 -31 9 -63q-3 1 -5 1zM875 80q-8 -6 -5 -17l15 -50l-62 34q-4 2 -8 2q-2 0 -4 -1q-67 -17 -101 -17
q-117 0 -200 70t-83 169t83 169t200 70q115 0 198.5 -71t83.5 -168q0 -49 -30 -98t-87 -92zM613 384q-13 0 -24 -11t-11 -24t11 -24t24 -11q19 0 31.5 10.5t12.5 24.5t-12.5 24.5t-31.5 10.5zM806 384q-13 0 -24 -11t-11 -24t11 -24t24 -11q19 0 31.5 10.5t12.5 24.5
t-12.5 24.5t-31.5 10.5z" />
    <glyph glyph-name="weibo" unicode="&#xe651;" horiz-adv-x="1026" 
d="M697 391q-1 0 -3 1q-7 2 -10 3t-7 5.5t0 10.5q20 52 0 81q-34 48 -162 -7q-1 0 -2.5 -0.5t-5.5 -1.5t-6.5 -0.5t-4.5 3t0 8.5q19 61 -8 86q-31 31 -103.5 3t-144.5 -98q-112 -110 -112 -208q0 -59 47 -105.5t118.5 -70t151.5 -23.5q74 0 139.5 20t108 51.5t67 68.5
t24.5 72q0 39 -25 64.5t-62 36.5v0zM447 122q-94 -9 -165 27.5t-77 97.5q-7 61 55.5 110.5t156.5 59.5q93 9 164 -27.5t77 -97.5t-56 -110.5t-155 -59.5v0zM447 122zM840.5 616q-37.5 40 -90 55t-106.5 5v0q-12 -3 -19 -13t-3 -20q2 -12 12.5 -18t22.5 -3q38 7 75.5 -4
t63.5 -39q28 -28 36 -65t-4 -70v0q-5 -11 1 -21.5t19 -14.5q12 -3 22.5 2t14.5 17v0q16 46 4.5 97.5t-49 91.5zM764 546q-18 20 -43.5 27.5t-52.5 2.5q-10 -2 -16 -10.5t-3 -19.5q2 -9 11 -15t18 -3v0q28 4 47 -15q20 -19 10 -47v0q-3 -9 2 -18.5t15 -12.5t20 1.5t13 14.5
q8 23 2.5 49t-23.5 46zM488 385q-46 12 -92 -7.5t-66 -58.5q-21 -41 -3 -80t64 -54q48 -15 97 5.5t70 64.5q20 42 -1 80.5t-69 49.5v0zM441 250q-10 -14 -27.5 -19.5t-32.5 1t-18.5 21.5t6 29t26.5 19t32 -1t19 -20.5t-5 -29.5v0zM482 302q-8 -14 -23 -9q-5 2 -6.5 7.5
t1.5 11t9.5 8t11.5 0.5q6 -2 8 -7.5t-1 -10.5v0zM482 302z" />
    <glyph glyph-name="feiji" unicode="&#xe64e;" 
d="M512 -108q-100 0 -192 38q-88 38 -156 106t-106 156q-38 92 -38 192t38 192q38 88 106 156t156 106q92 38 192 38t192 -38q88 -38 156 -106t106 -156q38 -92 38 -192t-38 -192q-38 -88 -106 -156t-156 -106q-92 -38 -192 -38v0zM512 873q-99 0 -190 -38
q-88 -37 -155.5 -105t-105.5 -156q-38 -90 -38 -189.5t38 -190.5q38 -88 105.5 -155.5t155.5 -104.5q91 -39 190.5 -39t189.5 39q88 37 155.5 104.5t105.5 155.5q38 91 38 190.5t-38 189.5q-38 88 -105.5 156t-155.5 105q-90 38 -190 38v0zM512 873zM512 -128
q-104 0 -199 40q-92 39 -163 110t-110 163q-40 95 -40 199t40 199q39 92 110 163t163 110q94 40 199 40t199 -40q92 -39 163 -110t110 -163q40 -95 40 -199t-40 -199q-39 -92 -110 -163t-163 -110q-95 -40 -199 -40zM512 853q-96 0 -183 -37q-84 -35 -149 -100t-100 -149
q-37 -87 -37 -182.5t37 -183.5q35 -84 100 -149t149 -100q87 -37 183 -37t183 37q84 35 149 100t100 149q37 88 37 183.5t-37 182.5q-35 84 -100 149t-149 100q-87 37 -183 37zM718 490q24 23 43.5 72t-1.5 70t-70 1.5t-72 -43.5l-70 -69l-66 4v0l-103 7l-147 10l-41 -43
l245 -90l-125 -125h-75l-48 -49l141 -34l34 -141l49 48v76l124 124l91 -245l43 42l-10 141v0l-7 108v0l-4 66z" />
    <glyph glyph-name="you" unicode="&#xe619;" 
d="M302 201v348h81v55h63v-55h82v-287q3 -65 -63 -61h-163zM363 497v-94h20v94h-20zM363 351v-102h20v102h-20zM469 497h-23v-94h23v94zM448 249q22 -2 21 22v80h-23v-102h2zM687 415q28 -38 29 -94q0 -98 -92 -98v59q29 0 29 45q0 51 -31 85q19 48 24 118h-31v-353h-69v407
h170v-52q-13 -76 -29 -117zM928 560q-9 20 -20 40q-20 -26 -51 -39q43 -83 43 -177q0 -105 -52 -194.5t-141.5 -141.5t-194.5 -52t-194.5 52t-141.5 141.5t-52 194.5t52 194.5t141.5 141.5t194.5 52q95 0 179 -44q13 30 40 51q-21 11 -43 21q-84 35 -176 35t-176 -35
q-81 -35 -143 -97t-97 -143q-35 -84 -35 -176t35 -176q35 -81 97 -143t143 -97q84 -35 176 -35t176 35q81 35 143 97t97 143q35 84 35 176t-35 176z" />
    <glyph glyph-name="shouji1" unicode="&#xe64c;" 
d="M695 794h-279q-26 0 -44.5 -18.5t-18.5 -44.5v-634q0 -27 18.5 -45.5t44.5 -18.5h279q27 0 45.5 18.5t18.5 45.5v634q0 26 -18.5 44.5t-45.5 18.5v0zM518 743h76q5 0 9 -3.5t4 -9t-4 -9t-9 -3.5h-76q-5 0 -9 3.5t-4 9t4 9t9 3.5v0zM556 59q-16 0 -27 11t-11 26.5t11 27
t27 11.5t27 -11.5t11 -27t-11 -26.5t-27 -11v0zM733 160h-355v507h355v-507v0zM733 160z" />
    <glyph glyph-name="gouwuche" unicode="&#xe614;" 
d="M853 636h-555l-10 80q-1 10 -9 16.5t-18 6.5h-5h-6h-68q-12 0 -20.5 -8t-8.5 -18.5t8.5 -18.5t20.5 -8h57l54 -448q1 -10 9 -17t18 -7h5q3 0 6 1h450q11 0 19.5 7.5t8.5 18.5t-8.5 18.5t-19.5 7.5h-439l-6 55h446q10 0 18.5 7t10.5 16l61 268q2 10 -3.5 16.5t-15.5 6.5v0
v0zM341 100q0 -26 18.5 -45t45 -19t45 19t18.5 45t-18.5 44.5t-45 18.5t-45 -18.5t-18.5 -44.5v0zM656 100q0 -26 18.5 -45t45 -19t45 19t18.5 45t-18.5 44.5t-45 18.5t-45 -18.5t-18.5 -44.5v0z" />
    <glyph glyph-name="tui1" unicode="&#xe63a;" 
d="M512 -61q-90 0 -172.5 35t-142 95t-94.5 142.5t-35 173t35 173t94.5 142t142 95t172.5 35.5t172.5 -35.5t142 -95t94.5 -142t35 -173t-35 -173t-94.5 -142.5t-142 -95t-172.5 -35v0zM512 896q-104 0 -198.5 -40.5t-162.5 -109t-108.5 -163.5t-40.5 -199t40.5 -199
t108.5 -163.5t162.5 -109t198.5 -40.5t198.5 40.5t162.5 109t108.5 163.5t40.5 199t-40.5 199t-108.5 163.5t-162.5 109t-198.5 40.5v0zM497 180h273q24 0 27 -22q-3 -23 -27 -25h-266q-94 5 -155 53q-5 -5 -7 -5q-33 -28 -67 -45q-21 -8 -29 12q-10 21 8 32q69 25 69 72
v121q0 20 -20 22h-45q-20 0 -20 22q0 23 20 25h72q37 -2 39 -38v-139q5 -83 128 -85v0zM310 613q41 -42 72 -86q11 -25 -5 -36q-20 -10 -33 12q-51 58 -61 69q-3 5 -7 12q-18 15 -1 32q16 8 35 -3v0zM697 635q45 2 43 -39v-152q-3 -35 -39 -35h-228v-159q-2 -6 0 -6q4 0 7 1
q43 23 67 42q21 16 36 0q10 -18 -7 -35q-47 -35 -96 -59q-28 -8 -41 0.5t-13 33.5v367q-2 21 8.5 31.5t33.5 9.5h229v0v0zM489 592q-19 -2 -19 -20v-25h226v25q0 20 -15 20h-192v0v0zM470 454h209q15 -2 15 14v35h-224v-49v0zM561 392q28 -19 79 -59q38 27 68 59q15 15 33 0
q13 -16 0 -34q-24 -27 -65 -54q7 -7 29 -30t38 -39q15 -23 0 -39q-21 -12 -35 7q-75 82 -176 153q-15 11 -1 29q10 15 30 7v0z" />
    <glyph glyph-name="qizi" unicode="&#xe602;" 
d="M340 342v-235q0 -7 -5 -12t-12 -5t-12 5t-5 12v618q-15 5 -24.5 18t-9.5 29q0 21 15 35.5t36 14.5t36 -14.5t15 -35.5q0 -16 -9.5 -29t-24.5 -18v-72v-311zM323 789q-7 0 -12 -5t-5 -12t5 -12t12 -5t12 5t5 12t-5 12t-12 5v0v0zM272 119q-51 -10 -51 -29
q0 -12 21.5 -20.5t55.5 -11.5q5 -1 8 -1h34q4 0 8 1q34 3 56 11.5t22 20.5q0 19 -52 29v33q38 -8 62 -24.5t24 -37.5q0 -28 -40 -47.5t-96.5 -19.5t-96.5 19.5t-40 47.5q0 21 23.5 37.5t61.5 24.5v-33v0v0zM619 629zM340 619v-240v240zM843 707q0 2 -1 3q-3 7 -16 7l-484 1
v0q-4 0 -4.5 -3.5t1 -9.5t1.5 -7v-199v0h486q12 0 15.5 7t-6.5 11l-68 91l69 91q7 3 7 8v0zM804 696l-54 -79q-7 -3 -7 -8.5t7 -8.5l54 -79l-464 -2v179l431 -1z" />
    <glyph glyph-name="121" unicode="&#xe603;" 
d="M511.5 -65q-91.5 0 -174.5 35.5t-143.5 95.5t-96 143.5t-35.5 174.5t35.5 174.5t96 143.5t143.5 95.5t174.5 35.5t174.5 -35.5t143 -95.5t95.5 -143.5t35.5 -174.5t-35.5 -174.5t-95.5 -143.5t-143 -95.5t-174.5 -35.5zM284 738l30 -89h97l-79 -58l30 -88l-78 52l-78 -52
l29 88l-78 58h97zM602 561l9 -29h32l-26 -19l10 -29l-25 17l-26 -17l10 29l-26 19h32zM580 692l22 -22l28 14l-14 -28l21 -21l-30 4l-15 -27l-5 30l-31 6l29 14zM477 767l29 -10l20 24l-2 -31l29 -11l-29 -9l-3 -30l-16 25l-31 -8l20 25zM477 454l29 -10l20 25l-2 -32
l29 -11l-29 -9l-3 -30l-16 25l-31 -8l20 25z" />
    <glyph glyph-name="weibiaoti-" unicode="&#xe600;" 
d="M940 661q-244 41 -405 41q-46 0 -87.5 8t-69 20t-48 24t-29.5 21l-10 8v81h-81v-973h81v487q4 -4 10.5 -9.5t29 -19.5t48.5 -24.5t68 -19t87 -8.5q73 0 174 -10.5t166 -20.5l66 -10l-122 203z" />
    <glyph glyph-name="meiguo" unicode="&#xe611;" 
d="M520 556h403q-15 35 -35 66h-368v-66zM833 76h-642q37 -38 80 -67h481q44 29 81 67zM520 692h313q-37 38 -81 66h-232v-66zM520 419h436q-3 34 -10 66h-426v-66zM956 349h-888q3 -34 11 -66h866q8 33 11 66zM923 212h-822q15 -35 35 -66h752q20 31 35 66zM752 758
q-106 69 -232 71v-71h232zM520 622h368q-24 38 -55 70h-313v-70v0zM520 485h426q-9 37 -23 71h-403v-71zM520 349h436q1 18 1 35t-1 35h-436v-70zM945 283h-866q8 -37 22 -71h822q14 34 22 71zM888 146h-752q24 -38 55 -70h642q31 32 55 70zM752 10h-480q109 -71 239 -71h2
q130 0 239 71zM520 419v410h-3.5h-3.5h-2q-83 0 -160 -30l4 -12h20l-16 -12l6 -19l-16 12l-16 -12l6 19l-16 12q-126 -59 -196 -180l4 -12h20l-16 -12l6 -19l-16 12l-16 -12l6 19h-1q-30 -60 -41 -127l2 -6h20l-16 -11l6 -19l-16 11q-2 -24 -2 -47q0 -17 1 -35h452v70z
M141 372l-16 12l-16 -12l6 19l-16 11h20l6 19l6 -19h20l-16 -11zM135 487l6 -19l-16 12l-16 -12l6 19l-16 12h19l7 18l6 -18h20zM191 439l6 -19l-16 12l-16 -12l6 19l-16 11h19l7 19l6 -19h20zM191 535l6 -19l-16 12l-16 -12l6 19l-16 12h19l7 19l6 -19h20zM191 631l6 -19
l-16 12l-16 -12l6 19l-16 12h19l7 19l6 -19h20zM253 372l-16 12l-16 -12l6 19l-16 11h20l6 19l6 -19h20l-16 -11zM247 487l6 -19l-16 12l-16 -12l6 19l-16 12h20l6 18l6 -18h20zM247 583l6 -19l-16 12l-16 -12l6 19l-16 12h20l6 19l6 -19h20zM247 679l6 -19l-16 12l-16 -12
l6 19l-16 12h20l6 19l6 -19h20zM303 439l6 -19l-16 12l-16 -12l6 19l-16 11h20l6 19l6 -19h20zM303 535l6 -19l-16 12l-16 -12l6 19l-16 12h20l6 19l6 -19h20zM303 631l6 -19l-16 12l-16 -12l6 19l-16 12h20l6 19l6 -19h20zM303 727l6 -19l-16 12l-16 -12l6 19l-16 12h20
l6 19l6 -19h20zM365 372l-16 12l-16 -12l6 19l-16 11h20l6 19l6 -19h20l-16 -11zM359 487l6 -19l-16 12l-16 -12l6 19l-16 11h20l6 19l6 -18h20zM359 583l6 -19l-16 12l-16 -12l6 19l-16 12h20l6 19l6 -19h20zM359 679l6 -19l-16 12l-16 -12l6 19l-16 12h20l6 19l6 -19h20z
M415 439l6 -19l-16 12l-16 -12l6 19l-16 11h20l6 19l6 -19h20zM415 535l6 -19l-16 12l-16 -12l6 19l-16 12h20l6 19l6 -19h20zM415 631l6 -19l-16 12l-16 -12l6 19l-16 12h20l6 19l6 -19h20zM415 727l6 -19l-16 12l-16 -12l6 19l-16 12h20l6 19l6 -19h20zM477 372l-16 12
l-16 -12l6 19l-16 11h20l6 19l6 -19h20l-16 -11zM471 487l6 -19l-16 12l-16 -12l6 19l-16 12h20l6 19l6 -19h20zM471 583l6 -19l-16 12l-16 -12l6 19l-16 12h20l6 19l6 -19h20zM471 679l6 -19l-16 12l-16 -12l6 19l-16 12h20l6 19l6 -19h20zM471 775l6 -19l-16 12l-16 -12
l6 19l-16 12h20l6 19l6 -19h20zM346 797q-11 -4 -23 -10h20zM333 756l16 12l16 -12l-6 19l16 12h-20l-4 12q-1 0 -2.5 -1t-2.5 -1l-3 -10h-20l16 -12zM461 806l-6 -19h-20l16 -12l-6 -19l16 12l16 -12l-6 19l16 12h-20zM299 739l-6 19l-6 -19h-20l16 -12l-6 -19l16 12
l16 -12l-6 19l16 12h-20zM411 739l-6 19l-6 -19h-20l16 -12l-6 -19l16 12l16 -12l-6 19l16 12h-20zM237 710l-6 -19h-20l16 -12l-6 -19l16 12l16 -12l-6 19l16 12h-20zM349 710l-6 -19h-20l16 -12l-6 -19l16 12l16 -12l-6 19l16 12h-20zM461 710l-6 -19h-20l16 -12l-6 -19
l16 12l16 -12l-6 19l16 12h-20zM187 643l-6 19l-7 -19h-19l16 -12l-6 -19l16 12l16 -12l-6 19l16 12h-20zM299 643l-6 19l-6 -19h-20l16 -12l-6 -19l16 12l16 -12l-6 19l16 12h-20zM411 643l-6 19l-6 -19h-20l16 -12l-6 -19l16 12l16 -12l-6 19l16 12h-20zM108 564l17 12
l16 -12l-7 19l17 12h-20l-4 12q-6 -10 -13 -23l1 -1zM237 614l-6 -19h-20l16 -12l-6 -19l16 12l16 -12l-6 19l16 12h-20zM349 614l-6 -19h-20l16 -12l-6 -19l16 12l16 -12l-6 19l16 12h-20zM461 614l-6 -19h-20l16 -12l-6 -19l16 12l16 -12l-6 19l16 12h-20zM187 547l-6 19
l-7 -19h-19l16 -12l-6 -19l16 12l16 -12l-6 19l16 12h-20zM299 547l-6 19l-6 -19h-20l16 -12l-6 -19l16 12l16 -12l-6 19l16 12h-20zM411 547l-6 19l-6 -19h-20l16 -12l-6 -19l16 12l16 -12l-6 19l16 12h-20zM125 518l-7 -19h-19l16 -12l-7 -19l17 12l16 -12l-6 19l16 12
h-20zM237 518l-6 -19h-20l16 -12l-6 -19l16 12l16 -12l-6 19l16 12h-20zM349 518l-6 -19h-20l16 -12l-6 -19l16 12l16 -12l-6 19l16 12h-20zM461 518l-6 -19h-20l16 -12l-6 -19l16 12l16 -12l-6 19l16 12h-20zM85 420l-7 19l17 11h-20l-2 6q-2 -12 -4 -25zM187 450l-6 20
l-7 -20h-19l16 -11l-6 -19l16 12l16 -12l-6 19l16 11h-20zM299 450l-6 20l-6 -20h-20l16 -11l-6 -19l16 12l16 -12l-6 19l16 11h-20zM411 450l-6 20l-6 -20h-20l16 -11l-6 -19l16 12l16 -12l-6 19l16 11h-20zM131 402l-6 19l-6 -19h-20l16 -11l-6 -19l16 12l16 -12l-6 19
l16 11h-20zM243 402l-6 19l-6 -19h-20l16 -11l-6 -19l16 12l16 -12l-6 19l16 11h-20zM355 402l-6 19l-6 -19h-20l16 -11l-6 -19l16 12l16 -12l-6 19l16 11h-20zM467 402l-6 19l-6 -19h-20l16 -11l-6 -19l16 12l16 -12l-6 19l16 11h-20z" />
    <glyph glyph-name="yingguo" unicode="&#xe615;" 
d="M75 297q7 -32 18 -63h37l-30 -19q16 -39 40 -75l143 94h103l-212 -139q9 -11 19 -21l197 128v-246q26 -7 53 -12v353h-368zM581 -56q27 4 53 12v244l196 -128q30 31 54 67l-146 95h104l70 -46q6 13 11 24l-33 22h41q11 31 17 64h-367v-354zM443 824q-27 -4 -53 -12v-251
l-200 130q-29 -30 -51 -64l142 -93h-104l-66 43q-7 -14 -12 -28l23 -15h-29q-11 -31 -18 -63h368v353zM949 471q-7 32 -18 63h-33l26 18q-15 38 -38 74l-141 -92h-104l211 137q-10 12 -19 22l-199 -130v249q-26 7 -53 12v-353h368zM93 234q3 -8 7 -19l30 19h-37zM99 549
q-3 -7 -6 -15h29zM833 693q-84 86 -199 119v-249zM390 812q-116 -33 -200 -121l200 -131v252zM193 74q83 -86 197 -118v246zM931 534q-3 9 -7 18l-26 -18h33zM634 -44q113 32 196 116l-196 128v-244zM923 212l8 22h-41zM581 -56v353h368q8 43 8 87t-8 86h-368v354
q-33 5 -66 5h-6q-33 0 -66 -5v-354h-368q-8 -42 -8 -86t8 -87h368v-353q33 -5 66 -5h6q33 0 66 5zM738 234l146 -95q15 23 28 49l-70 46h-104zM745 534l141 92q-16 24 -34 45l-211 -137h104zM281 534l-142 93q-15 -24 -28 -50l66 -43h104zM283 234l-143 -94q15 -23 34 -45
l212 139h-103v0z" />
    <glyph glyph-name="feiji1" unicode="&#xe62f;" 
d="M425 342l-61 -28l-73 28q-11 3 -19 1t-12 -6l-5 -3q-4 -7 -3.5 -13t3.5 -11l3 -4l58 -55q6 -5 15 -7.5t15 -3.5h6l31 3q11 1 18.5 3t10.5 4l2 1l364 196q8 10 7.5 18t-5.5 12l-5 5q-22 13 -45 13t-35 -6l-12 -7l-108 -55l-203 31q-10 2 -17 0t-10 -5l-4 -4l-27 -19
q-4 -6 -2.5 -10t4.5 -7l3 -2l106 -50q7 -4 7 -9t-3 -8zM521 -27q-140 0 -250 85.5t-147 217.5q44 2 58 13q10 9 3.5 19.5t-16.5 19.5t-11 9l-73 97q-1 1 -2.5 2t-7 2.5t-9.5 0.5t-8.5 -6.5t-6.5 -14.5h-1v-2.5v-1.5q-1 -7 -1 -16v0v-7v-2.5v-2.5q0 -97 37.5 -184.5
t100.5 -151t150.5 -101t183.5 -37.5q156 0 279 91.5t170 235.5l-47 55q-32 -139 -144 -230t-258 -91v0zM992 374q0 96 -37.5 183.5t-101 151t-151 101t-183.5 37.5q-156 0 -280 -91t-171 -235l48 -55q32 139 144.5 230t258.5 91q141 0 251 -85.5t147 -218.5q-44 -2 -58 -12
q-9 -9 -4 -20t17 -20l11 -9l73 -97q1 -1 3 -2t7 -2t9.5 0t9 6t6.5 15v-1v3v3q1 7 1 15v6v3v3z" />
    <glyph glyph-name="you1" unicode="&#xe606;" 
d="M424 564h108v-409h-50v32h-170v-41h-47v418h106v88h53v-88v0zM312 516v-113h62v113h-62zM312 234h62v122h-62v-122zM482 516h-61v-113h61v113zM482 234v122h-61v-122h61zM780 601q-44 -113 -72 -175q63 -66 63 -140q0 -60 -30 -81q-15 -9 -37 -12q-25 -3 -51 -1
q-2 29 -15 51q22 -2 42 -1q15 0 25 5q15 10 15 44q0 64 -66 128q29 67 57 152h-82v-460h-48v512h152l8 2zM814 83q-14 13 -27 0q-52 -47 -117 -75q-76 -32 -159 -32t-158 32q-74 31 -130 87.5t-87 130.5q-33 75 -33 158.5t33 158.5q31 73 87 129.5t130 87.5q76 32 159 32
t158 -32q74 -31 130 -87.5t88 -129.5q32 -76 32 -158.5t-32 -158.5q-6 -14 -21 -40q-9 -18 5 -33q6 -5 13.5 -4t11.5 8q19 35 27 51q34 80 35 167q2 94 -33.5 180t-97.5 147.5t-148.5 97t-180.5 32.5q-117 -3 -216 -61.5t-157.5 -157.5t-61.5 -217q-3 -93 32.5 -179
t96.5 -148t146.5 -98t179.5 -35q84 2 160 33t136 86q6 5 6 13t-6 13z" />
    <glyph glyph-name="free-shipping" unicode="&#xe601;" 
d="M18 384q0 -101 39 -192.5t105 -157.5t157.5 -105t192.5 -39q156 0 282 88q-20 10 -29 30q-114 -77 -253 -77q-92 0 -176 36t-144.5 96.5t-96.5 144.5t-36 176t36 176t96.5 144.5t144.5 96.5t176 36t176 -36t144.5 -96.5t96.5 -144.5t36 -176q0 -170 -112 -297
q19 -12 26 -33q61 66 94 151t33 179q0 101 -39 192.5t-105 157.5t-157.5 105t-192.5 39t-192.5 -39t-157.5 -105t-105 -157.5t-39 -192.5v0zM465 547q34 0 54 3q-3 -20 -3 -68v-297q0 -45 3 -71h-39v41h-190v-41h-39q3 21 3 72v298q0 38 -2 66q20 -3 50 -3h65v52q0 36 -4 59
h43q-4 -27 -4 -60v-51h63zM290 515v-145h77v145h-77zM290 338v-151h77v151h-77zM480 370v145h-78v-145h78zM480 187v151h-78v-151h78zM773 609q-6 -13 -12 -28q-28 -73 -70 -148q27 -26 40 -44t24 -42q16 -38 16 -75q0 -50 -29 -68q-17 -9 -61 -9q-13 0 -38 1q-1 24 -8 41
q27 -5 50 -5q30 0 39 10t9 33q0 36 -21 79q-11 22 -24 37t-39 36q45 74 77 171h-116v-419q0 -44 4 -69h-45q4 25 4 68v400q0 29 -2 55q21 -2 47 -2h91q31 0 44 3z" />
    <glyph glyph-name="deguo-copy" unicode="&#xe607;" 
d="M93 235q46 -131 160.5 -213t257 -82t257 82t160.5 213h-835zM93 530h836q-46 131 -160.5 213.5t-257.5 82.5t-257.5 -82.5t-160.5 -213.5v0zM68 383q0 -77 25 -148h835q26 71 26 148q0 76 -25 147h-836q-25 -71 -25 -147v0z" />
    <glyph glyph-name="gouwuche1" unicode="&#xe608;" 
d="M1023 623l-91 -336q-3 -12 -13 -20t-23 -8h-607l24 -112h532q16 0 26.5 -11t10.5 -26.5t-10.5 -26t-26.5 -10.5h-563q-13 0 -23 8t-13 21l-142 680h-67q-15 0 -26 11t-11 26.5t11 26.5t26 11h97q13 0 23.5 -8.5t12.5 -21.5l33 -157h784q18 0 29 -14.5t7 -32.5zM394 -89
q-28 0 -48 20t-20 48t20 48t48 20t48 -20t20 -48t-20 -48t-48 -20v0zM779 -89q-28 0 -48 20t-20 48t20 48t48 20t47.5 -20t19.5 -48t-19.5 -48t-47.5 -20v0z" />
    <glyph glyph-name="zhengpin" unicode="&#xe60a;" 
d="M512 782q-108 0 -200 -53t-145 -145t-53 -200t53 -200t145 -145t200 -53t200 53t145 145t53 200t-53 200t-145 145t-200 53zM512 26q-97 0 -179.5 48t-130.5 130.5t-48 179.5t48 179.5t130.5 130.5t179.5 48t179.5 -48t130.5 -130.5t48 -179.5t-48 -179.5t-130.5 -130.5
t-179.5 -48zM552 384h148v36h-148v121h163v37h-404v-37h203v-314h-113v248h-38v-248h-72v-37h442v37h-181v157z" />
  </font>
</defs>
</svg>
